<svg width="71" height="71" viewBox="0 0 71 71" fill="none" xmlns="http://www.w3.org/2000/svg">
<rect x="0.984375" y="0.1875" width="70" height="70" rx="35" fill="black" fill-opacity="0.2"/>
<g clip-path="url(#clip0_1_48)">
<path d="M35.9844 67.1875C18.3844 67.1875 3.98438 52.7875 3.98438 35.1875C3.98438 17.5875 18.3844 3.1875 35.9844 3.1875C53.5844 3.1875 67.9844 17.5875 67.9844 35.1875C67.9844 52.7875 53.5844 67.1875 35.9844 67.1875ZM35.9844 5.1875C19.4844 5.1875 5.98438 18.6875 5.98438 35.1875C5.98438 51.6875 19.4844 65.1875 35.9844 65.1875C52.4844 65.1875 65.9844 51.6875 65.9844 35.1875C65.9844 18.6875 52.4844 5.1875 35.9844 5.1875Z" fill="white"/>
<path d="M19.9844 42.1875C19.6844 42.1875 19.4844 42.0875 19.2844 41.8875L12.5844 35.1875L19.2844 28.4875C19.6844 28.0875 20.2844 28.0875 20.6844 28.4875C21.0844 28.8875 21.0844 29.4875 20.6844 29.8875L15.3844 35.1875L20.6844 40.4875C21.0844 40.8875 21.0844 41.4875 20.6844 41.8875C20.4844 42.0875 20.2844 42.1875 19.9844 42.1875Z" fill="white"/>
<path d="M51.9844 42.1875C51.6844 42.1875 51.4844 42.0875 51.2844 41.8875C50.8844 41.4875 50.8844 40.8875 51.2844 40.4875L56.5844 35.1875L51.2844 29.8875C50.8844 29.4875 50.8844 28.8875 51.2844 28.4875C51.6844 28.0875 52.2844 28.0875 52.6844 28.4875L59.3844 35.1875L52.6844 41.8875C52.4844 42.0875 52.2844 42.1875 51.9844 42.1875Z" fill="white"/>
</g>
<defs>
<clipPath id="clip0_1_48">
<rect width="70" height="70" fill="white" transform="translate(0.984375 0.1875)"/>
</clipPath>
</defs>
</svg>
